<svg xmlns="http://www.w3.org/2000/svg" xmlns:xlink="http://www.w3.org/1999/xlink" version="1.1" x="0px" y="0px" viewBox="0 0 100 125" style="enable-background:new 0 0 100 100;" xml:space="preserve"><path d="M44.7807617,24.9194336c0.5522461,0,1-0.4477539,1-1c0-2.3266602,1.8925781-4.2192383,4.2192383-4.2192383  s4.2192383,1.8925781,4.2192383,4.2192383c0,0.5522461,0.4477539,1,1,1s1-0.4477539,1-1  c0-3.4291992-2.7900391-6.2192383-6.2192383-6.2192383s-6.2192383,2.7900391-6.2192383,6.2192383  C43.7807617,24.4716797,44.2285156,24.9194336,44.7807617,24.9194336z"/><path d="M32.855957,61.0908203c-3.0053711,0-5.4501953,2.4453125-5.4501953,5.4506836s2.4448242,5.4501953,5.4501953,5.4501953  s5.4506836-2.4448242,5.4506836-5.4501953S35.8613281,61.0908203,32.855957,61.0908203z M32.855957,69.9916992  c-1.9023438,0-3.4501953-1.5478516-3.4501953-3.4501953c0-1.902832,1.5478516-3.4506836,3.4501953-3.4506836  c1.902832,0,3.4506836,1.5478516,3.4506836,3.4506836C36.3066406,68.4438477,34.7587891,69.9916992,32.855957,69.9916992z"/><path d="M67.144043,61.0908203c-3.0053711,0-5.4506836,2.4453125-5.4506836,5.4506836s2.4453125,5.4501953,5.4506836,5.4501953  s5.4501953-2.4448242,5.4501953-5.4501953S70.1494141,61.0908203,67.144043,61.0908203z M67.144043,69.9916992  c-1.902832,0-3.4506836-1.5478516-3.4506836-3.4501953c0-1.902832,1.5478516-3.4506836,3.4506836-3.4506836  c1.9023438,0,3.4501953,1.5478516,3.4501953,3.4506836C70.5942383,68.4438477,69.0463867,69.9916992,67.144043,69.9916992z"/><path d="M24.7832031,78.1469727l4.9014893-0.0001831l-2.6837158,4.3336792h-3.4643555c-0.5522461,0-1,0.4477539-1,1s0.4477539,1,1,1  h2.2258301l-2.4606934,3.9736328c-0.2910156,0.4692383-0.1459961,1.0859375,0.3237305,1.3764648  c0.1640625,0.1015625,0.3457031,0.1499023,0.5253906,0.1499023c0.3349609,0,0.6621094-0.1679688,0.8510742-0.4736328  l3.1126099-5.0263672h43.7703857l3.1126099,5.0263672c0.1889648,0.3056641,0.5161133,0.4736328,0.8510742,0.4736328  c0.1796875,0,0.3613281-0.0483398,0.5253906-0.1499023c0.4697266-0.2905273,0.6147461-0.9072266,0.3237305-1.3764648  l-2.4606934-3.9736328h2.2614746c0.5522461,0,1-0.4477539,1-1s-0.4477539-1-1-1h-3.5l-2.6847534-4.3353271l2.6569214-0.0001221  c0.0239258,0.0014648,0.1367188,0.0078125,0.3193359,0.0078125c0.9428711,0,3.737793-0.1650391,5.6850586-1.9990234  c1.2895508-1.2143555,1.9428711-2.8867188,1.9414062-4.9692383V24.7890625c0-4.0727539-3.0605469-7.4052734-7.1186523-7.7509766  l-14.4077148-1.2285156C57.6206055,12.2607422,53.9985352,10,49.9995117,10c-4.0004883,0-7.6230469,2.2617188-9.3920898,5.8115234  l-14.4047852,1.2270508c-4.0585938,0.3457031-7.1191406,3.6782227-7.1191406,7.7509766v47.6577148  C19.0834961,75.590332,21.6401367,78.1469727,24.7832031,78.1469727z M78.9165039,54.4887695H51V30.9912109h27.9165039V54.4887695z   M49,54.4887695H21.0834961V30.9912109H49V54.4887695z M70.6464233,82.4804688h-41.293335l2.6837769-4.3338013l35.9248657-0.0014648  L70.6464233,82.4804688z M77.6118164,74.6904297c-1.6850586,1.5957031-4.4960938,1.4589844-4.5805664,1.456543H24.7832031  c-2.0400391,0-3.699707-1.659668-3.699707-3.699707V56.4887695h57.8330078v14.6967773  C78.9174805,72.6904297,78.4785156,73.8696289,77.6118164,74.6904297z M26.3725586,19.0317383l14.9829102-1.2763672  c0.3681641-0.0317383,0.6889648-0.2631836,0.8339844-0.6025391C43.5307617,14.0224609,46.5961914,12,49.9995117,12  c3.4018555,0,6.4667969,2.0219727,7.8085938,5.1508789c0.1455078,0.3393555,0.4658203,0.5708008,0.8339844,0.6025391  l14.9858398,1.277832c3.0151367,0.2568359,5.2885742,2.7319336,5.2885742,5.7578125v4.2021484H21.0834961v-4.2016602  C21.0834961,21.7636719,23.3574219,19.2885742,26.3725586,19.0317383z"/><path d="M45.5498047,62.3408203h8.9003906c0.5522461,0,1-0.4477539,1-1s-0.4477539-1-1-1h-8.9003906c-0.5522461,0-1,0.4477539-1,1  S44.9975586,62.3408203,45.5498047,62.3408203z"/><path d="M55.9155273,65.3291016H44.0844727c-0.5522461,0-1,0.4477539-1,1s0.4477539,1,1,1h11.8310547c0.5522461,0,1-0.4477539,1-1  S56.4677734,65.3291016,55.9155273,65.3291016z"/><path d="M54.4501953,70.3173828h-8.9003906c-0.5522461,0-1,0.4477539-1,1s0.4477539,1,1,1h8.9003906c0.5522461,0,1-0.4477539,1-1  S55.0024414,70.3173828,54.4501953,70.3173828z"/><text x="0" y="115" fill="#000000" font-size="5px" font-weight="bold" font-family="'Helvetica Neue', Helvetica, Arial-Unicode, Arial, Sans-serif">Created by Made</text><text x="0" y="120" fill="#000000" font-size="5px" font-weight="bold" font-family="'Helvetica Neue', Helvetica, Arial-Unicode, Arial, Sans-serif">from the Noun Project</text></svg>